<svg width="360" height="390" viewBox="0 0 360 390" fill="none" xmlns="http://www.w3.org/2000/svg">
<rect y="30" width="360" height="360" fill="#355DB7"/>
<path d="M181.499 304.2C168.059 304.2 155.899 301.96 145.019 297.48C134.139 292.787 124.859 286.493 117.179 278.6C109.499 270.493 103.525 261.32 99.2588 251.08C95.2054 240.627 93.1788 229.64 93.1788 218.12C93.1788 202.12 96.6988 187.507 103.739 174.28C110.992 161.053 121.232 150.493 134.459 142.6C147.899 134.493 163.685 130.44 181.819 130.44C200.165 130.44 215.845 134.493 228.859 142.6C241.872 150.493 251.792 161.053 258.619 174.28C265.659 187.293 269.179 201.373 269.179 216.52C269.179 219.08 269.072 221.747 268.859 224.52C268.645 227.08 268.432 229.213 268.219 230.92H138.619C139.472 239.453 141.925 246.92 145.979 253.32C150.245 259.72 155.579 264.627 161.979 268.04C168.592 271.24 175.632 272.84 183.099 272.84C191.632 272.84 199.632 270.813 207.099 266.76C214.779 262.493 220.005 256.947 222.779 250.12L259.579 260.36C255.525 268.893 249.659 276.467 241.979 283.08C234.512 289.693 225.659 294.92 215.419 298.76C205.179 302.387 193.872 304.2 181.499 304.2ZM137.659 203.72H225.339C224.485 195.187 222.032 187.827 217.979 181.64C214.139 175.24 209.019 170.333 202.619 166.92C196.219 163.293 189.072 161.48 181.179 161.48C173.499 161.48 166.459 163.293 160.059 166.92C153.872 170.333 148.752 175.24 144.699 181.64C140.859 187.827 138.512 195.187 137.659 203.72Z" fill="url(#paint0_linear_10_108)"/>
<defs>
<linearGradient id="paint0_linear_10_108" x1="80.48" y1="190.507" x2="276" y2="190.507" gradientUnits="userSpaceOnUse">
<stop offset="0.0571586" stop-color="#799AE3"/>
<stop offset="0.5" stop-color="#A2B3DD"/>
<stop offset="1" stop-color="#EDE2D3"/>
</linearGradient>
</defs>
</svg>
