<svg width="360" height="360" viewBox="0 0 360 360" fill="none" xmlns="http://www.w3.org/2000/svg">
<rect width="360" height="360" fill="#355DB7"/>
<path d="M62.7073 202.64C60.0193 202.64 57.5873 202.192 55.4113 201.296C53.2353 200.357 51.3793 199.099 49.8433 197.52C48.3073 195.899 47.1126 194.064 46.2593 192.016C45.4486 189.925 45.0433 187.728 45.0433 185.424C45.0433 182.224 45.7473 179.301 47.1553 176.656C48.6059 174.011 50.6539 171.899 53.2993 170.32C55.9873 168.699 59.1446 167.888 62.7713 167.888C66.4406 167.888 69.5766 168.699 72.1793 170.32C74.7819 171.899 76.7659 174.011 78.1313 176.656C79.5393 179.259 80.2433 182.075 80.2433 185.104C80.2433 185.616 80.2219 186.149 80.1793 186.704C80.1366 187.216 80.0939 187.643 80.0513 187.984H54.1313C54.3019 189.691 54.7926 191.184 55.6033 192.464C56.4566 193.744 57.5233 194.725 58.8033 195.408C60.1259 196.048 61.5339 196.368 63.0273 196.368C64.7339 196.368 66.3339 195.963 67.8273 195.152C69.3633 194.299 70.4086 193.189 70.9633 191.824L78.3233 193.872C77.5126 195.579 76.3393 197.093 74.8033 198.416C73.3099 199.739 71.5393 200.784 69.4913 201.552C67.4433 202.277 65.1819 202.64 62.7073 202.64ZM53.9393 182.544H71.4753C71.3046 180.837 70.8139 179.365 70.0033 178.128C69.2353 176.848 68.2113 175.867 66.9313 175.184C65.6513 174.459 64.2219 174.096 62.6433 174.096C61.1073 174.096 59.6993 174.459 58.4193 175.184C57.1819 175.867 56.1579 176.848 55.3473 178.128C54.5793 179.365 54.1099 180.837 53.9393 182.544ZM83.4838 155.28H92.0598V191.248C92.0598 192.784 92.3158 193.829 92.8278 194.384C93.3398 194.896 94.0438 195.152 94.9398 195.152C95.6224 195.152 96.3264 195.067 97.0518 194.896C97.7771 194.725 98.4171 194.512 98.9718 194.256L100.124 200.784C98.9718 201.339 97.6278 201.765 96.0918 202.064C94.5558 202.363 93.1691 202.512 91.9318 202.512C89.2438 202.512 87.1531 201.808 85.6598 200.4C84.2091 198.949 83.4838 196.901 83.4838 194.256V155.28ZM117.492 202.64C114.804 202.64 112.372 202.192 110.196 201.296C108.02 200.357 106.164 199.099 104.628 197.52C103.092 195.899 101.898 194.064 101.044 192.016C100.234 189.925 99.8283 187.728 99.8283 185.424C99.8283 182.224 100.532 179.301 101.94 176.656C103.391 174.011 105.439 171.899 108.084 170.32C110.772 168.699 113.93 167.888 117.556 167.888C121.226 167.888 124.362 168.699 126.964 170.32C129.567 171.899 131.551 174.011 132.916 176.656C134.324 179.259 135.028 182.075 135.028 185.104C135.028 185.616 135.007 186.149 134.964 186.704C134.922 187.216 134.879 187.643 134.836 187.984H108.916C109.087 189.691 109.578 191.184 110.388 192.464C111.242 193.744 112.308 194.725 113.588 195.408C114.911 196.048 116.319 196.368 117.812 196.368C119.519 196.368 121.119 195.963 122.612 195.152C124.148 194.299 125.194 193.189 125.748 191.824L133.108 193.872C132.298 195.579 131.124 197.093 129.588 198.416C128.095 199.739 126.324 200.784 124.276 201.552C122.228 202.277 119.967 202.64 117.492 202.64ZM108.724 182.544H126.26C126.09 180.837 125.599 179.365 124.788 178.128C124.02 176.848 122.996 175.867 121.716 175.184C120.436 174.459 119.007 174.096 117.428 174.096C115.892 174.096 114.484 174.459 113.204 175.184C111.967 175.867 110.943 176.848 110.132 178.128C109.364 179.365 108.895 180.837 108.724 182.544ZM153.373 202.192C151.154 202.192 149.106 201.765 147.229 200.912C145.394 200.016 143.794 198.779 142.429 197.2C141.106 195.621 140.082 193.808 139.357 191.76C138.631 189.712 138.269 187.536 138.269 185.232C138.269 182.8 138.653 180.539 139.421 178.448C140.189 176.357 141.255 174.523 142.621 172.944C144.029 171.323 145.671 170.085 147.549 169.232C149.469 168.336 151.581 167.888 153.885 167.888C156.487 167.888 158.77 168.485 160.733 169.68C162.695 170.832 164.317 172.389 165.597 174.352V168.464H173.085V200.4C173.085 203.728 172.274 206.565 170.653 208.912C169.074 211.301 166.877 213.115 164.061 214.352C161.245 215.632 158.045 216.272 154.461 216.272C150.834 216.272 147.762 215.653 145.245 214.416C142.727 213.221 140.573 211.515 138.781 209.296L143.453 204.752C144.733 206.331 146.333 207.568 148.253 208.464C150.215 209.36 152.285 209.808 154.461 209.808C156.295 209.808 157.959 209.467 159.453 208.784C160.989 208.144 162.205 207.12 163.101 205.712C164.039 204.347 164.509 202.576 164.509 200.4V196.176C163.399 198.096 161.821 199.589 159.773 200.656C157.767 201.68 155.634 202.192 153.373 202.192ZM156.253 195.344C157.191 195.344 158.087 195.195 158.941 194.896C159.794 194.597 160.583 194.192 161.309 193.68C162.034 193.168 162.674 192.571 163.229 191.888C163.783 191.163 164.21 190.437 164.509 189.712V181.712C163.997 180.389 163.271 179.237 162.333 178.256C161.437 177.275 160.413 176.528 159.261 176.016C158.151 175.461 156.978 175.184 155.741 175.184C154.418 175.184 153.223 175.461 152.157 176.016C151.09 176.571 150.173 177.36 149.405 178.384C148.637 179.365 148.039 180.475 147.613 181.712C147.229 182.907 147.037 184.165 147.037 185.488C147.037 186.853 147.271 188.133 147.741 189.328C148.21 190.523 148.85 191.568 149.661 192.464C150.514 193.36 151.495 194.064 152.605 194.576C153.757 195.088 154.973 195.344 156.253 195.344ZM176.591 192.08C176.591 189.904 177.189 188.005 178.383 186.384C179.621 184.72 181.327 183.44 183.503 182.544C185.679 181.648 188.175 181.2 190.991 181.2C192.399 181.2 193.829 181.307 195.279 181.52C196.73 181.733 197.989 182.075 199.055 182.544V180.752C199.055 178.619 198.415 176.976 197.135 175.824C195.898 174.672 194.042 174.096 191.567 174.096C189.733 174.096 187.983 174.416 186.319 175.056C184.655 175.696 182.906 176.635 181.071 177.872L178.319 172.24C180.538 170.789 182.799 169.701 185.103 168.976C187.45 168.251 189.903 167.888 192.463 167.888C197.242 167.888 200.954 169.083 203.599 171.472C206.287 173.861 207.631 177.275 207.631 181.712V192.4C207.631 193.296 207.781 193.936 208.079 194.32C208.421 194.704 208.954 194.939 209.679 195.024V202C208.911 202.128 208.207 202.235 207.567 202.32C206.97 202.405 206.458 202.448 206.031 202.448C204.325 202.448 203.023 202.064 202.127 201.296C201.274 200.528 200.741 199.589 200.527 198.48L200.335 196.752C198.885 198.629 197.071 200.08 194.895 201.104C192.719 202.128 190.501 202.64 188.239 202.64C186.021 202.64 184.015 202.192 182.223 201.296C180.474 200.357 179.087 199.099 178.063 197.52C177.082 195.899 176.591 194.085 176.591 192.08ZM197.455 193.808C197.925 193.296 198.309 192.784 198.607 192.272C198.906 191.76 199.055 191.291 199.055 190.864V187.472C198.031 187.045 196.922 186.725 195.727 186.512C194.533 186.256 193.402 186.128 192.335 186.128C190.117 186.128 188.282 186.619 186.831 187.6C185.423 188.539 184.719 189.797 184.719 191.376C184.719 192.229 184.954 193.04 185.423 193.808C185.893 194.576 186.575 195.195 187.471 195.664C188.367 196.133 189.434 196.368 190.671 196.368C191.951 196.368 193.21 196.133 194.447 195.664C195.685 195.152 196.687 194.533 197.455 193.808ZM244.893 202H236.317V183.184C236.317 180.496 235.848 178.533 234.909 177.296C233.971 176.059 232.669 175.44 231.005 175.44C229.853 175.44 228.68 175.739 227.485 176.336C226.333 176.933 225.288 177.765 224.349 178.832C223.411 179.856 222.728 181.051 222.301 182.416V202H213.725V168.464H221.469V174.672C222.323 173.221 223.411 172.005 224.733 171.024C226.056 170 227.571 169.232 229.277 168.72C231.027 168.165 232.861 167.888 234.781 167.888C236.872 167.888 238.579 168.272 239.901 169.04C241.267 169.765 242.291 170.768 242.973 172.048C243.699 173.285 244.189 174.693 244.445 176.272C244.744 177.851 244.893 179.451 244.893 181.072V202ZM270.339 200.272C269.613 200.571 268.739 200.912 267.715 201.296C266.691 201.68 265.581 201.979 264.387 202.192C263.235 202.448 262.061 202.576 260.867 202.576C259.288 202.576 257.837 202.299 256.515 201.744C255.192 201.189 254.125 200.315 253.315 199.12C252.547 197.883 252.163 196.283 252.163 194.32V175.056H247.747V168.464H252.163V157.584H260.739V168.464H267.779V175.056H260.739V191.44C260.781 192.592 261.101 193.424 261.699 193.936C262.296 194.448 263.043 194.704 263.939 194.704C264.835 194.704 265.709 194.555 266.563 194.256C267.416 193.957 268.099 193.701 268.611 193.488L270.339 200.272ZM288.062 202.64C285.374 202.64 282.942 202.192 280.766 201.296C278.59 200.357 276.734 199.099 275.198 197.52C273.662 195.899 272.468 194.064 271.614 192.016C270.804 189.925 270.398 187.728 270.398 185.424C270.398 182.224 271.102 179.301 272.51 176.656C273.961 174.011 276.009 171.899 278.654 170.32C281.342 168.699 284.5 167.888 288.126 167.888C291.796 167.888 294.932 168.699 297.534 170.32C300.137 171.899 302.121 174.011 303.486 176.656C304.894 179.259 305.598 182.075 305.598 185.104C305.598 185.616 305.577 186.149 305.534 186.704C305.492 187.216 305.449 187.643 305.406 187.984H279.486C279.657 189.691 280.148 191.184 280.958 192.464C281.812 193.744 282.878 194.725 284.158 195.408C285.481 196.048 286.889 196.368 288.382 196.368C290.089 196.368 291.689 195.963 293.182 195.152C294.718 194.299 295.764 193.189 296.318 191.824L303.678 193.872C302.868 195.579 301.694 197.093 300.158 198.416C298.665 199.739 296.894 200.784 294.846 201.552C292.798 202.277 290.537 202.64 288.062 202.64ZM279.294 182.544H296.83C296.66 180.837 296.169 179.365 295.358 178.128C294.59 176.848 293.566 175.867 292.286 175.184C291.006 174.459 289.577 174.096 287.998 174.096C286.462 174.096 285.054 174.459 283.774 175.184C282.537 175.867 281.513 176.848 280.702 178.128C279.934 179.365 279.465 180.837 279.294 182.544ZM328.871 175.888C326.268 175.888 323.943 176.4 321.895 177.424C319.847 178.405 318.375 179.835 317.479 181.712V202H308.903V168.464H316.775V175.632C317.969 173.328 319.484 171.515 321.319 170.192C323.153 168.869 325.095 168.144 327.143 168.016C327.612 168.016 327.975 168.016 328.231 168.016C328.487 168.016 328.7 168.037 328.871 168.08V175.888Z" fill="url(#paint0_linear_3_8)"/>
<defs>
<linearGradient id="paint0_linear_3_8" x1="37.7383" y1="180" x2="330" y2="180" gradientUnits="userSpaceOnUse">
<stop offset="0.0571586" stop-color="#799AE3"/>
<stop offset="0.5" stop-color="#A2B3DD"/>
<stop offset="1" stop-color="#EDE2D3"/>
</linearGradient>
</defs>
</svg>
