<svg width="287" height="75" viewBox="0 0 287 75" fill="none" xmlns="http://www.w3.org/2000/svg">
<path d="M19.7073 60.64C17.0193 60.64 14.5873 60.192 12.4113 59.296C10.2353 58.3573 8.37925 57.0987 6.84325 55.52C5.30725 53.8987 4.11258 52.064 3.25925 50.016C2.44858 47.9253 2.04325 45.728 2.04325 43.424C2.04325 40.224 2.74725 37.3013 4.15525 34.656C5.60592 32.0107 7.65392 29.8987 10.2993 28.32C12.9873 26.6987 16.1446 25.888 19.7713 25.888C23.4406 25.888 26.5766 26.6987 29.1793 28.32C31.7819 29.8987 33.7659 32.0107 35.1313 34.656C36.5393 37.2587 37.2433 40.0747 37.2433 43.104C37.2433 43.616 37.2219 44.1493 37.1793 44.704C37.1366 45.216 37.0939 45.6427 37.0513 45.984H11.1313C11.3019 47.6907 11.7926 49.184 12.6033 50.464C13.4566 51.744 14.5233 52.7253 15.8033 53.408C17.1259 54.048 18.5339 54.368 20.0273 54.368C21.7339 54.368 23.3339 53.9627 24.8273 53.152C26.3633 52.2987 27.4086 51.1893 27.9633 49.824L35.3233 51.872C34.5126 53.5787 33.3393 55.0933 31.8033 56.416C30.3099 57.7387 28.5393 58.784 26.4913 59.552C24.4433 60.2773 22.1819 60.64 19.7073 60.64ZM10.9393 40.544H28.4753C28.3046 38.8373 27.8139 37.3653 27.0033 36.128C26.2353 34.848 25.2113 33.8667 23.9313 33.184C22.6513 32.4587 21.2219 32.096 19.6433 32.096C18.1073 32.096 16.6993 32.4587 15.4193 33.184C14.1819 33.8667 13.1579 34.848 12.3473 36.128C11.5793 37.3653 11.1099 38.8373 10.9393 40.544ZM40.4838 13.28H49.0598V49.248C49.0598 50.784 49.3158 51.8293 49.8278 52.384C50.3398 52.896 51.0438 53.152 51.9398 53.152C52.6224 53.152 53.3264 53.0667 54.0518 52.896C54.7771 52.7253 55.4171 52.512 55.9718 52.256L57.1238 58.784C55.9718 59.3387 54.6278 59.7653 53.0918 60.064C51.5558 60.3627 50.1691 60.512 48.9318 60.512C46.2438 60.512 44.1531 59.808 42.6598 58.4C41.2091 56.9493 40.4838 54.9013 40.4838 52.256V13.28ZM74.4923 60.64C71.8043 60.64 69.3723 60.192 67.1963 59.296C65.0203 58.3573 63.1643 57.0987 61.6283 55.52C60.0923 53.8987 58.8976 52.064 58.0443 50.016C57.2336 47.9253 56.8283 45.728 56.8283 43.424C56.8283 40.224 57.5323 37.3013 58.9403 34.656C60.3909 32.0107 62.4389 29.8987 65.0843 28.32C67.7723 26.6987 70.9296 25.888 74.5563 25.888C78.2256 25.888 81.3616 26.6987 83.9643 28.32C86.5669 29.8987 88.5509 32.0107 89.9163 34.656C91.3243 37.2587 92.0283 40.0747 92.0283 43.104C92.0283 43.616 92.0069 44.1493 91.9643 44.704C91.9216 45.216 91.8789 45.6427 91.8363 45.984H65.9163C66.0869 47.6907 66.5776 49.184 67.3883 50.464C68.2416 51.744 69.3083 52.7253 70.5883 53.408C71.9109 54.048 73.3189 54.368 74.8123 54.368C76.5189 54.368 78.1189 53.9627 79.6123 53.152C81.1483 52.2987 82.1936 51.1893 82.7483 49.824L90.1083 51.872C89.2976 53.5787 88.1243 55.0933 86.5883 56.416C85.0949 57.7387 83.3243 58.784 81.2763 59.552C79.2283 60.2773 76.9669 60.64 74.4923 60.64ZM65.7243 40.544H83.2603C83.0896 38.8373 82.5989 37.3653 81.7883 36.128C81.0203 34.848 79.9963 33.8667 78.7163 33.184C77.4363 32.4587 76.0069 32.096 74.4283 32.096C72.8923 32.096 71.4843 32.4587 70.2043 33.184C68.9669 33.8667 67.9429 34.848 67.1323 36.128C66.3643 37.3653 65.8949 38.8373 65.7243 40.544ZM110.373 60.192C108.154 60.192 106.106 59.7653 104.229 58.912C102.394 58.016 100.794 56.7787 99.4288 55.2C98.1061 53.6213 97.0821 51.808 96.3568 49.76C95.6314 47.712 95.2688 45.536 95.2688 43.232C95.2688 40.8 95.6528 38.5387 96.4208 36.448C97.1888 34.3573 98.2554 32.5227 99.6208 30.944C101.029 29.3227 102.671 28.0853 104.549 27.232C106.469 26.336 108.581 25.888 110.885 25.888C113.487 25.888 115.77 26.4853 117.733 27.68C119.695 28.832 121.317 30.3893 122.597 32.352V26.464H130.085V58.4C130.085 61.728 129.274 64.5653 127.653 66.912C126.074 69.3013 123.877 71.1147 121.061 72.352C118.245 73.632 115.045 74.272 111.461 74.272C107.834 74.272 104.762 73.6533 102.245 72.416C99.7274 71.2213 97.5728 69.5147 95.7808 67.296L100.453 62.752C101.733 64.3307 103.333 65.568 105.253 66.464C107.215 67.36 109.285 67.808 111.461 67.808C113.295 67.808 114.959 67.4667 116.453 66.784C117.989 66.144 119.205 65.12 120.101 63.712C121.039 62.3467 121.509 60.576 121.509 58.4V54.176C120.399 56.096 118.821 57.5893 116.773 58.656C114.767 59.68 112.634 60.192 110.373 60.192ZM113.253 53.344C114.191 53.344 115.087 53.1947 115.941 52.896C116.794 52.5973 117.583 52.192 118.309 51.68C119.034 51.168 119.674 50.5707 120.229 49.888C120.783 49.1627 121.21 48.4373 121.509 47.712V39.712C120.997 38.3893 120.271 37.2373 119.333 36.256C118.437 35.2747 117.413 34.528 116.261 34.016C115.151 33.4613 113.978 33.184 112.741 33.184C111.418 33.184 110.223 33.4613 109.157 34.016C108.09 34.5707 107.173 35.36 106.405 36.384C105.637 37.3653 105.039 38.4747 104.613 39.712C104.229 40.9067 104.037 42.1653 104.037 43.488C104.037 44.8533 104.271 46.1333 104.741 47.328C105.21 48.5227 105.85 49.568 106.661 50.464C107.514 51.36 108.495 52.064 109.605 52.576C110.757 53.088 111.973 53.344 113.253 53.344ZM133.591 50.08C133.591 47.904 134.189 46.0053 135.383 44.384C136.621 42.72 138.327 41.44 140.503 40.544C142.679 39.648 145.175 39.2 147.991 39.2C149.399 39.2 150.829 39.3067 152.279 39.52C153.73 39.7333 154.989 40.0747 156.055 40.544V38.752C156.055 36.6187 155.415 34.976 154.135 33.824C152.898 32.672 151.042 32.096 148.567 32.096C146.733 32.096 144.983 32.416 143.319 33.056C141.655 33.696 139.906 34.6347 138.071 35.872L135.319 30.24C137.538 28.7893 139.799 27.7013 142.103 26.976C144.45 26.2507 146.903 25.888 149.463 25.888C154.242 25.888 157.954 27.0827 160.599 29.472C163.287 31.8613 164.631 35.2747 164.631 39.712V50.4C164.631 51.296 164.781 51.936 165.079 52.32C165.421 52.704 165.954 52.9387 166.679 53.024V60C165.911 60.128 165.207 60.2347 164.567 60.32C163.97 60.4053 163.458 60.448 163.031 60.448C161.325 60.448 160.023 60.064 159.127 59.296C158.274 58.528 157.741 57.5893 157.527 56.48L157.335 54.752C155.885 56.6293 154.071 58.08 151.895 59.104C149.719 60.128 147.501 60.64 145.239 60.64C143.021 60.64 141.015 60.192 139.223 59.296C137.474 58.3573 136.087 57.0987 135.063 55.52C134.082 53.8987 133.591 52.0853 133.591 50.08ZM154.455 51.808C154.925 51.296 155.309 50.784 155.607 50.272C155.906 49.76 156.055 49.2907 156.055 48.864V45.472C155.031 45.0453 153.922 44.7253 152.727 44.512C151.533 44.256 150.402 44.128 149.335 44.128C147.117 44.128 145.282 44.6187 143.831 45.6C142.423 46.5387 141.719 47.7973 141.719 49.376C141.719 50.2293 141.954 51.04 142.423 51.808C142.893 52.576 143.575 53.1947 144.471 53.664C145.367 54.1333 146.434 54.368 147.671 54.368C148.951 54.368 150.21 54.1333 151.447 53.664C152.685 53.152 153.687 52.5333 154.455 51.808ZM201.893 60H193.317V41.184C193.317 38.496 192.848 36.5333 191.909 35.296C190.971 34.0587 189.669 33.44 188.005 33.44C186.853 33.44 185.68 33.7387 184.485 34.336C183.333 34.9333 182.288 35.7653 181.349 36.832C180.411 37.856 179.728 39.0507 179.301 40.416V60H170.725V26.464H178.469V32.672C179.323 31.2213 180.411 30.0053 181.733 29.024C183.056 28 184.571 27.232 186.277 26.72C188.027 26.1653 189.861 25.888 191.781 25.888C193.872 25.888 195.579 26.272 196.901 27.04C198.267 27.7653 199.291 28.768 199.973 30.048C200.699 31.2853 201.189 32.6933 201.445 34.272C201.744 35.8507 201.893 37.4507 201.893 39.072V60ZM227.339 58.272C226.613 58.5707 225.739 58.912 224.715 59.296C223.691 59.68 222.581 59.9787 221.387 60.192C220.235 60.448 219.061 60.576 217.867 60.576C216.288 60.576 214.837 60.2987 213.515 59.744C212.192 59.1893 211.125 58.3147 210.315 57.12C209.547 55.8827 209.163 54.2827 209.163 52.32V33.056H204.747V26.464H209.163V15.584H217.739V26.464H224.779V33.056H217.739V49.44C217.781 50.592 218.101 51.424 218.699 51.936C219.296 52.448 220.043 52.704 220.939 52.704C221.835 52.704 222.709 52.5547 223.563 52.256C224.416 51.9573 225.099 51.7013 225.611 51.488L227.339 58.272ZM245.062 60.64C242.374 60.64 239.942 60.192 237.766 59.296C235.59 58.3573 233.734 57.0987 232.198 55.52C230.662 53.8987 229.468 52.064 228.614 50.016C227.804 47.9253 227.398 45.728 227.398 43.424C227.398 40.224 228.102 37.3013 229.51 34.656C230.961 32.0107 233.009 29.8987 235.654 28.32C238.342 26.6987 241.5 25.888 245.126 25.888C248.796 25.888 251.932 26.6987 254.534 28.32C257.137 29.8987 259.121 32.0107 260.486 34.656C261.894 37.2587 262.598 40.0747 262.598 43.104C262.598 43.616 262.577 44.1493 262.534 44.704C262.492 45.216 262.449 45.6427 262.406 45.984H236.486C236.657 47.6907 237.148 49.184 237.958 50.464C238.812 51.744 239.878 52.7253 241.158 53.408C242.481 54.048 243.889 54.368 245.382 54.368C247.089 54.368 248.689 53.9627 250.182 53.152C251.718 52.2987 252.764 51.1893 253.318 49.824L260.678 51.872C259.868 53.5787 258.694 55.0933 257.158 56.416C255.665 57.7387 253.894 58.784 251.846 59.552C249.798 60.2773 247.537 60.64 245.062 60.64ZM236.294 40.544H253.83C253.66 38.8373 253.169 37.3653 252.358 36.128C251.59 34.848 250.566 33.8667 249.286 33.184C248.006 32.4587 246.577 32.096 244.998 32.096C243.462 32.096 242.054 32.4587 240.774 33.184C239.537 33.8667 238.513 34.848 237.702 36.128C236.934 37.3653 236.465 38.8373 236.294 40.544ZM285.871 33.888C283.268 33.888 280.943 34.4 278.895 35.424C276.847 36.4053 275.375 37.8347 274.479 39.712V60H265.903V26.464H273.775V33.632C274.969 31.328 276.484 29.5147 278.319 28.192C280.153 26.8693 282.095 26.144 284.143 26.016C284.612 26.016 284.975 26.016 285.231 26.016C285.487 26.016 285.7 26.0373 285.871 26.08V33.888Z" fill="url(#paint0_linear_4_11)"/>
<defs>
<linearGradient id="paint0_linear_4_11" x1="-5.26167" y1="38" x2="287" y2="38" gradientUnits="userSpaceOnUse">
<stop offset="0.0571586" stop-color="#799AE3"/>
<stop offset="0.5" stop-color="#A2B3DD"/>
<stop offset="1" stop-color="#EDE2D3"/>
</linearGradient>
</defs>
</svg>
